<svg width="99" height="99" viewBox="0 0 99 99" fill="none" xmlns="http://www.w3.org/2000/svg">
<circle cx="49.5" cy="49.5" r="48" fill="black" fill-opacity="0.19" stroke="white" stroke-width="3"/>
<path d="M27.6223 36.4164V39.0972H24.489V48.6016H21.7038V39.0972H18.5705V36.4164H27.6223ZM35.2822 36.4164H38.0674V48.6016H35.2822V43.7623H31.4526V48.6016H28.6674V36.4164H31.4526V41.0816H35.2822V36.4164ZM42.7701 45.9208H47.6441V48.6016H39.9849V36.4164H47.5571V39.0972H42.7701V41.1164H47.1219V43.7623H42.7701V45.9208ZM60.774 42.2827C61.7721 42.921 62.2711 43.8378 62.2711 45.0331C62.2711 46.0891 61.8939 46.9479 61.1396 47.6093C60.3853 48.2708 59.4511 48.6016 58.337 48.6016H53.2193V36.4164H57.9889C59.0797 36.4164 59.9907 36.7414 60.7218 37.3912C61.4645 38.0295 61.8359 38.8651 61.8359 39.8979C61.8359 40.8727 61.4819 41.6676 60.774 42.2827ZM57.9889 39.0275H56.0044V41.186H57.9889C58.3022 41.186 58.5575 41.0874 58.7548 40.8901C58.9521 40.6812 59.0507 40.4201 59.0507 40.1068C59.0507 39.7935 58.9521 39.5381 58.7548 39.3409C58.5575 39.132 58.3022 39.0275 57.9889 39.0275ZM58.337 45.9905C58.6852 45.9905 58.9637 45.886 59.1726 45.6771C59.3814 45.4566 59.4859 45.1723 59.4859 44.8242C59.4859 44.476 59.3814 44.1975 59.1726 43.9886C58.9637 43.7681 58.6852 43.6579 58.337 43.6579H56.0044V45.9905H58.337ZM63.4828 36.4164H66.2679V48.6016H63.4828V36.4164ZM80.2508 41.8127V42.8571C80.2508 44.6791 79.6821 46.1355 78.5449 47.2264C77.4192 48.3056 75.986 48.8453 74.2453 48.8453C72.3537 48.8453 70.7812 48.236 69.5279 47.0175C68.2862 45.799 67.6653 44.302 67.6653 42.5264C67.6653 40.7509 68.2803 39.248 69.5105 38.0179C70.7522 36.7878 72.2666 36.1727 74.0538 36.1727C75.1911 36.1727 76.2297 36.428 77.1697 36.9387C78.1213 37.4493 78.8582 38.1224 79.3804 38.9579L77.013 40.3157C76.7461 39.8979 76.3457 39.5556 75.8119 39.2886C75.2897 39.0217 74.6979 38.8883 74.0364 38.8883C73.0035 38.8883 72.1448 39.2306 71.4601 39.9153C70.787 40.6 70.4505 41.4762 70.4505 42.5438C70.4505 43.5999 70.7986 44.4644 71.4949 45.1375C72.1912 45.799 73.1196 46.1297 74.2801 46.1297C75.8932 46.1297 76.9318 45.5031 77.396 44.2497H74.1408V41.8127H80.2508ZM33.6578 63.6016L33.0485 61.6868H28.5226L27.9134 63.6016H24.8671L29.01 51.4164H32.5611L36.7041 63.6016H33.6578ZM29.3582 59.0757H32.213L30.7856 54.602L29.3582 59.0757ZM42.1819 51.4164C43.3772 51.4164 44.3868 51.8226 45.2108 52.6349C46.0347 53.4473 46.4467 54.4337 46.4467 55.5942C46.4467 56.7547 46.0347 57.7411 45.2108 58.5534C44.3868 59.3658 43.3772 59.772 42.1819 59.772H40.3542V63.6016H37.569V51.4164H42.1819ZM42.1819 57.1609C42.6113 57.1609 42.9652 57.01 43.2438 56.7083C43.5223 56.4065 43.6615 56.0352 43.6615 55.5942C43.6615 55.1532 43.5223 54.7818 43.2438 54.4801C42.9652 54.1784 42.6113 54.0275 42.1819 54.0275H40.3542V57.1609H42.1819ZM52.2755 51.4164C53.4708 51.4164 54.4804 51.8226 55.3043 52.6349C56.1283 53.4473 56.5402 54.4337 56.5402 55.5942C56.5402 56.7547 56.1283 57.7411 55.3043 58.5534C54.4804 59.3658 53.4708 59.772 52.2755 59.772H50.4477V63.6016H47.6625V51.4164H52.2755ZM52.2755 57.1609C52.7048 57.1609 53.0588 57.01 53.3373 56.7083C53.6158 56.4065 53.7551 56.0352 53.7551 55.5942C53.7551 55.1532 53.6158 54.7818 53.3373 54.4801C53.0588 54.1784 52.7048 54.0275 52.2755 54.0275H50.4477V57.1609H52.2755ZM60.5412 60.9208H64.893V63.6016H57.756V51.4164H60.5412V60.9208ZM68.7308 60.9208H73.6049V63.6016H65.9456V51.4164H73.5178V54.0972H68.7308V56.1164H73.0826V58.7623H68.7308V60.9208Z" fill="white"/>
</svg>
